# xmcd CD database file
#
# Track frame offsets:
#	150
#	13010
#	26750
#	40782
#	58900
#	72347
#	85491
#	104647
#	117588
#	138154
#	154728
#	170978
#
# Disc length: 2447 seconds
#
# Revision: 0
# Processed by: cddbd v1.5.2PL0 Copyright (c) Steve Scherf et al.
# Submitted via: CDex 1.51
#
DISCID=af098d0c
DTITLE=Patrick Feeny - Livin Life Loving You
DYEAR=1900
DGENRE=Country
TTITLE0=The Girl From County Clare
TTITLE1=Love Songs
TTITLE2=Don't Forget Me Paris
TTITLE3=The Irish Scattering
TTITLE4=Tomorrow Never Comes
TTITLE5=Livin' Life Loving You
TTITLE6=Wait Till The Clouds Roll By Jenny
TTITLE7=Old Dan Tucker
TTITLE8=Always On My Mind
TTITLE9=Ireland
TTITLE10=Cottage On The Borderline
TTITLE11=I'm Gonna Look Till I Find You
EXTD=
EXTT0=
EXTT1=
EXTT2=
EXTT3=
EXTT4=
EXTT5=
EXTT6=
EXTT7=
EXTT8=
EXTT9=
EXTT10=
EXTT11=
PLAYORDER=
